<svg width="50" height="50" viewBox="0 0 50 50" fill="none" xmlns="http://www.w3.org/2000/svg">
<path fill-rule="evenodd" clip-rule="evenodd" d="M23.4375 7.88257C14.6773 8.67199 7.8125 16.0343 7.8125 25C7.8125 34.4924 15.5076 42.1875 25 42.1875C29.8362 42.1875 34.2053 40.1915 37.3302 36.9741L24.0179 26.2152C23.6508 25.9186 23.4375 25.4719 23.4375 25V7.88257ZM26.5625 7.88257V23.4375H42.1174C41.3744 15.192 34.808 8.62561 26.5625 7.88257ZM42.1175 26.5625H29.4191L39.296 34.5449C40.8505 32.2217 41.8531 29.4994 42.1175 26.5625ZM4.6875 25C4.6875 13.7817 13.7817 4.6875 25 4.6875C36.2183 4.6875 45.3125 13.7817 45.3125 25C45.3125 29.8358 43.6207 34.2807 40.798 37.769C37.0767 42.3678 31.3816 45.3125 25 45.3125C13.7817 45.3125 4.6875 36.2183 4.6875 25Z" fill="#FDC80E"/>
</svg>
