<svg width="50" height="49" viewBox="0 0 50 49" fill="none" xmlns="http://www.w3.org/2000/svg">
<path fill-rule="evenodd" clip-rule="evenodd" d="M32.6047 8.70343L34.2992 8.91024C38.2103 9.3876 41.1462 12.6453 41.1462 16.5078V37.9237C41.1462 41.674 38.2956 44.837 34.4981 45.3005C28.1906 46.0704 21.81 46.0704 15.5026 45.3005C11.705 44.837 8.85449 41.674 8.85449 37.9237V16.5078C8.85449 12.6452 11.7903 9.3876 15.7015 8.91024L17.396 8.70343C18.0672 6.33336 20.2848 4.59375 22.917 4.59375H27.0837C29.7159 4.59375 31.9335 6.33336 32.6047 8.70343ZM17.1878 11.815L16.0877 11.9493C13.741 12.2357 11.9795 14.1903 11.9795 16.5078V37.9237C11.9795 40.129 13.6557 41.989 15.8888 42.2615C21.9398 43 28.0609 43 34.1119 42.2615C36.345 41.989 38.0212 40.129 38.0212 37.9237V16.5078C38.0212 14.1903 36.2597 12.2357 33.913 11.9493L32.8128 11.815V14.2917C32.8128 15.1374 32.1133 15.8229 31.2503 15.8229H18.7503C17.8874 15.8229 17.1878 15.1374 17.1878 14.2917V11.815ZM20.3128 10.2083C20.3128 8.79886 21.4788 7.65625 22.917 7.65625H27.0837C28.5219 7.65625 29.6878 8.79886 29.6878 10.2083V12.7604H20.3128V10.2083Z" fill="#FDC80E"/>
<path d="M32.8128 23.9896C32.8128 23.1439 32.1133 22.4583 31.2503 22.4583H18.7503C17.8874 22.4583 17.1878 23.1439 17.1878 23.9896C17.1878 24.8353 17.8874 25.5208 18.7503 25.5208H31.2503C32.1133 25.5208 32.8128 24.8353 32.8128 23.9896Z" fill="#FDC80E"/>
<path d="M30.7295 30.1146C30.7295 29.2689 30.0299 28.5833 29.167 28.5833H18.7503C17.8874 28.5833 17.1878 29.2689 17.1878 30.1146C17.1878 30.9603 17.8874 31.6458 18.7503 31.6458H29.167C30.0299 31.6458 30.7295 30.9603 30.7295 30.1146Z" fill="#FDC80E"/>
</svg>
