<svg width="49" height="50" viewBox="0 0 49 50" fill="none" xmlns="http://www.w3.org/2000/svg">
<path fill-rule="evenodd" clip-rule="evenodd" d="M43.8039 11.2828C44.1963 11.8893 44.1309 12.7135 43.6077 13.2474L24.8399 32.3982C24.6475 32.5945 24.4074 32.735 24.1441 32.8051L16.3278 34.8885C16.0728 34.9564 15.81 34.9551 15.5631 34.8909C15.3007 34.8228 15.0561 34.6837 14.858 34.4815C14.4736 34.0893 14.3219 33.5185 14.4593 32.9818L16.5009 25.0059C16.5611 24.7709 16.674 24.5388 16.8301 24.3567L35.6675 5.14515C35.8324 4.97689 36.031 4.85096 36.2472 4.77423C36.4074 4.71734 36.5773 4.6875 36.7502 4.6875C37.1563 4.6875 37.5458 4.85212 37.833 5.14515L43.6077 11.0377C43.6824 11.114 43.7478 11.1962 43.8039 11.2828ZM40.3594 12.1426L36.7502 8.45971L19.359 26.2059L18.083 31.1908L22.9682 29.8887L40.3594 12.1426Z" fill="#FDC80E"/>
<path d="M40.1013 35.7507C40.6595 30.8806 40.8372 25.9766 40.6342 21.085C40.6245 20.8508 40.7108 20.6229 40.8732 20.4571L42.8808 18.4085C43.1277 18.1566 43.5494 18.3165 43.5725 18.672C43.9501 24.4837 43.8069 30.3219 43.1431 36.1137C42.6601 40.3273 39.3438 43.6294 35.2358 44.0979C28.1582 44.905 20.8423 44.905 13.7647 44.0979C9.65673 43.6294 6.34038 40.3273 5.85742 36.1137C5.01107 28.7297 5.01107 21.2703 5.85742 13.8863C6.34038 9.67271 9.65673 6.3706 13.7647 5.90211C19.1337 5.28979 24.64 5.14198 30.0753 5.45867C30.4256 5.47908 30.5853 5.91161 30.3372 6.16478L28.3107 8.2326C28.1501 8.39655 27.9297 8.48459 27.7027 8.47678C23.157 8.32034 18.5805 8.49734 14.1048 9.00777C11.3892 9.31748 9.21383 11.5042 8.89918 14.2493C8.08048 21.3921 8.08048 28.6079 8.89918 35.7507C9.21383 38.4958 11.3892 40.6825 14.1048 40.9922C20.9564 41.7736 28.0442 41.7736 34.8957 40.9922C37.6113 40.6825 39.7867 38.4958 40.1013 35.7507Z" fill="#FDC80E"/>
</svg>
