<svg width="50" height="50" viewBox="0 0 50 50" fill="none" xmlns="http://www.w3.org/2000/svg">
<path d="M25.0003 18.75C22.6991 18.75 20.8337 20.6155 20.8337 22.9167C20.8337 25.2179 22.6991 27.0833 25.0003 27.0833C27.3015 27.0833 29.167 25.2179 29.167 22.9167C29.167 20.6155 27.3015 18.75 25.0003 18.75Z" fill="#FDC80E"/>
<path d="M16.667 36.4583C16.667 33.0066 19.4652 30.2083 22.917 30.2083H27.0837C30.5354 30.2083 33.3337 33.0066 33.3337 36.4583C33.3337 37.6089 32.4009 38.5417 31.2503 38.5417H18.7503C17.5997 38.5417 16.667 37.6089 16.667 36.4583Z" fill="#FDC80E"/>
<path fill-rule="evenodd" clip-rule="evenodd" d="M14.5837 4.6875C11.4195 4.6875 8.85449 7.25254 8.85449 10.4167V39.5833C8.85449 42.7475 11.4195 45.3125 14.5837 45.3125H35.417C38.5811 45.3125 41.1462 42.7475 41.1462 39.5833V17.079C41.1462 16.3162 40.9069 15.5727 40.4622 14.953L34.1847 6.20739C33.4999 5.25328 32.3974 4.6875 31.2229 4.6875H14.5837ZM11.9795 10.4167C11.9795 8.97843 13.1454 7.8125 14.5837 7.8125H29.6878V16.973C29.6878 17.836 30.3874 18.5355 31.2503 18.5355H38.0212V39.5833C38.0212 41.0216 36.8552 42.1875 35.417 42.1875H14.5837C13.1454 42.1875 11.9795 41.0216 11.9795 39.5833V10.4167Z" fill="#FDC80E"/>
</svg>
