<svg width="50" height="50" viewBox="0 0 50 50" fill="none" xmlns="http://www.w3.org/2000/svg">
<path d="M27.0838 31.25C25.9332 31.25 25.0004 32.1827 25.0004 33.3333C25.0004 34.4839 25.9332 35.4167 27.0838 35.4167C28.2344 35.4167 29.1671 34.4839 29.1671 33.3333C29.1671 32.1827 28.2344 31.25 27.0838 31.25Z" fill="#FDC80E"/>
<path d="M20.8338 35.4167C19.6832 35.4167 18.7504 36.3494 18.7504 37.5C18.7504 38.6506 19.6832 39.5833 20.8338 39.5833C21.9844 39.5833 22.9171 38.6506 22.9171 37.5C22.9171 36.3494 21.9844 35.4167 20.8338 35.4167Z" fill="#FDC80E"/>
<path fill-rule="evenodd" clip-rule="evenodd" d="M30.1977 6.77084L30.1883 6.77081H19.8125L19.8031 6.77084H17.7088C16.8458 6.77084 16.1463 7.4704 16.1463 8.33334C16.1463 9.19629 16.8458 9.89584 17.7088 9.89584H18.25V20.4398C8.97558 24.824 7.63576 37.6082 15.9717 43.7907L16.5862 44.2465C21.5835 47.9528 28.4173 47.9528 33.4146 44.2465L34.0291 43.7907C42.365 37.6082 41.0252 24.824 31.7508 20.4398V9.89584H32.2921C33.155 9.89584 33.8546 9.19629 33.8546 8.33334C33.8546 7.4704 33.155 6.77084 32.2921 6.77084H30.1977ZM18.4478 41.7365C22.3394 44.6228 27.6613 44.6228 31.553 41.7365L32.1675 41.2807C36.3665 38.1665 37.3838 32.8815 35.5933 28.6458H14.4075C12.617 32.8815 13.6343 38.1665 17.8332 41.2807L18.4478 41.7365ZM16.4522 25.5208H33.5486C32.6064 24.5308 31.4399 23.6994 30.0579 23.1036C29.1887 22.7289 28.6258 21.8732 28.6258 20.9267V9.89584H21.375V20.9267C21.375 21.8732 20.812 22.7289 19.9429 23.1036C18.5609 23.6994 17.3944 24.5308 16.4522 25.5208Z" fill="#FDC80E"/>
</svg>
