<svg width="49" height="50" viewBox="0 0 49 50" fill="none" xmlns="http://www.w3.org/2000/svg">
<path d="M27.5625 20.3125C27.5625 19.4495 26.8769 18.75 26.0312 18.75H13.7812C12.9356 18.75 12.25 19.4495 12.25 20.3125C12.25 21.1754 12.9356 21.875 13.7812 21.875H26.0312C26.8769 21.875 27.5625 21.1754 27.5625 20.3125Z" fill="#FDC80E"/>
<path d="M25.5208 26.5625C25.5208 25.6995 24.8353 25 23.9896 25H13.7812C12.9356 25 12.25 25.6995 12.25 26.5625C12.25 27.4254 12.9356 28.125 13.7812 28.125H23.9896C24.8353 28.125 25.5208 27.4254 25.5208 26.5625Z" fill="#FDC80E"/>
<path d="M26.0312 31.25C26.8769 31.25 27.5625 31.9495 27.5625 32.8125C27.5625 33.6754 26.8769 34.375 26.0312 34.375H13.7812C12.9356 34.375 12.25 33.6754 12.25 32.8125C12.25 31.9495 12.9356 31.25 13.7812 31.25H26.0312Z" fill="#FDC80E"/>
<path fill-rule="evenodd" clip-rule="evenodd" d="M12.25 45.3125H38.7917C41.8925 45.3125 44.4062 42.7475 44.4062 39.5833V28.125C44.4062 27.2621 43.7207 26.5625 42.875 26.5625H36.2396V10.2983C36.2396 7.33289 32.9548 5.60796 30.59 7.33158L30.2326 7.59206C28.6391 8.75351 26.4806 8.7496 24.8796 7.58271C22.2175 5.64243 18.6158 5.64243 15.9537 7.58271C14.3527 8.7496 12.1943 8.75351 10.6008 7.59206L10.2434 7.33158C7.87858 5.60796 4.59375 7.33289 4.59375 10.2983V37.5C4.59375 41.8147 8.02157 45.3125 12.25 45.3125ZM17.7338 10.1256C19.331 8.96146 21.5023 8.96146 23.0996 10.1256C25.7579 12.0632 29.3468 12.078 32.0126 10.135L32.37 9.87449C32.7078 9.62826 33.1771 9.87468 33.1771 10.2983V39.5833C33.1771 40.5211 33.3979 41.4062 33.7893 42.1875H12.25C9.71294 42.1875 7.65625 40.0888 7.65625 37.5V10.2983C7.65625 9.87468 8.12551 9.62826 8.46334 9.87449L8.82073 10.135C11.4865 12.078 15.0755 12.0632 17.7338 10.1256ZM36.2396 39.5833V29.6875H41.3438V39.5833C41.3438 41.0216 40.2011 42.1875 38.7917 42.1875C37.3822 42.1875 36.2396 41.0216 36.2396 39.5833Z" fill="#FDC80E"/>
</svg>
