<svg width="51" height="49" viewBox="0 0 51 49" fill="none" xmlns="http://www.w3.org/2000/svg">
<path fill-rule="evenodd" clip-rule="evenodd" d="M25.5 7.65625C18.1134 7.65625 12.2188 13.204 12.2188 19.9388C12.2188 24.0315 13.9632 27.5612 17.0751 29.7594C17.761 30.2439 18.3477 30.9664 18.5724 31.8831C18.7568 32.6354 18.9679 33.5521 19.177 34.5236H23.9062V32.3137C23.9062 32.0223 23.9928 31.737 24.1556 31.4913L25.8595 28.92L22.0365 26.0355C21.3921 25.5492 21.2364 24.6728 21.6764 24.0088L24.1556 20.2676C24.6283 19.5542 25.6135 19.3441 26.3559 19.7983C27.0984 20.2525 27.3171 21.1989 26.8444 21.9123L25.1405 24.4836L28.9635 27.3681C29.6079 27.8543 29.7636 28.7308 29.3236 29.3948L27.0938 32.7597V34.5236H31.823C32.0321 33.5521 32.2432 32.6354 32.4276 31.8831C32.6523 30.9664 33.239 30.2439 33.9249 29.7594C37.0368 27.5612 38.7812 24.0315 38.7812 19.9388C38.7812 13.204 32.8866 7.65625 25.5 7.65625ZM31.2135 37.5861H19.7865C20.0211 38.8879 20.2052 40.1207 20.2609 41.0057C20.3196 41.9375 21.0444 42.7726 22.1132 42.9945L22.5296 43.0809C24.4856 43.4869 26.5144 43.4869 28.4704 43.0809L28.8868 42.9945C29.9556 42.7726 30.6804 41.9375 30.7391 41.0057C30.7948 40.1207 30.9789 38.8879 31.2135 37.5861ZM9.03125 19.9388C9.03125 11.4153 16.4561 4.59375 25.5 4.59375C34.5439 4.59375 41.9688 11.4153 41.9688 19.9388C41.9688 24.8875 39.8362 29.3848 35.813 32.2268C35.6295 32.3564 35.5528 32.4928 35.5302 32.5852C35.2786 33.6114 34.9722 34.9696 34.6928 36.3477C34.3043 38.2633 33.9881 40.1213 33.9208 41.1906C33.7719 43.5552 31.9613 45.4894 29.5599 45.9879L29.1435 46.0743C26.7439 46.5724 24.2561 46.5724 21.8565 46.0743L21.4401 45.9879C19.0387 45.4894 17.2281 43.5552 17.0792 41.1906C17.0119 40.1213 16.6956 38.2633 16.3072 36.3477C16.0278 34.9696 15.7214 33.6114 15.4698 32.5852C15.4472 32.4928 15.3705 32.3564 15.187 32.2268C11.1638 29.3848 9.03125 24.8875 9.03125 19.9388Z" fill="#FDC80E"/>
</svg>
