<svg width="49" height="50" viewBox="0 0 49 50" fill="none" xmlns="http://www.w3.org/2000/svg">
<path d="M36.2394 22.9166C34.8299 22.9166 33.6873 24.0826 33.6873 25.5208C33.6873 26.9591 34.8299 28.125 36.2394 28.125C37.6488 28.125 38.7914 26.9591 38.7914 25.5208C38.7914 24.0826 37.6488 22.9166 36.2394 22.9166Z" fill="#FDC80E"/>
<path fill-rule="evenodd" clip-rule="evenodd" d="M8.51993 16.9069L12.7602 16.426V8.1521C12.7602 6.81191 13.7607 5.69239 15.0685 5.56921C21.3427 4.97823 27.6569 4.97823 33.931 5.56921C35.2388 5.69239 36.2394 6.81192 36.2394 8.1521V16.426L40.4797 16.9069C42.0443 17.0843 43.335 18.2373 43.7143 19.7963C44.8695 24.5439 44.8695 29.5077 43.7143 34.2552L43.3401 35.7932C43.1706 36.4899 42.5576 36.9792 41.854 36.9792H36.2394V41.8395C36.2394 43.1355 35.277 44.2206 34.0133 44.3495C27.6867 44.9951 21.3128 44.9951 14.9863 44.3495C13.7225 44.2206 12.7602 43.1355 12.7602 41.8395V36.9792H7.14566C6.4421 36.9792 5.82907 36.4899 5.65954 35.7932L5.28533 34.2552C4.13015 29.5077 4.13015 24.5439 5.28533 19.7963C5.66466 18.2373 6.95538 17.0843 8.51993 16.9069ZM33.1769 16.1241C27.4018 15.6409 21.5977 15.6409 15.8227 16.1241V8.63762C21.5964 8.1221 27.4032 8.1221 33.1769 8.63762V16.1241ZM33.1769 34.3784C33.1731 34.0494 32.9665 33.766 32.6732 33.6603C27.235 33.1683 21.7647 33.1683 16.3265 33.6603C16.0305 33.767 15.8227 34.0546 15.8227 34.3875V35.4167L15.8227 35.4297V41.2927C21.5947 41.8474 27.4049 41.8474 33.1769 41.2927V34.3784ZM40.6564 33.8542H36.2394V33.1604C36.2394 31.8645 35.277 30.7794 34.0133 30.6505C33.7368 30.6223 33.4603 30.5953 33.1836 30.5695C33.0677 30.5455 32.9498 30.5268 32.83 30.5136C27.2926 29.9049 21.7071 29.9049 16.1696 30.5136C16.0499 30.5268 15.932 30.5455 15.8161 30.5695C15.5394 30.5953 15.2628 30.6222 14.9863 30.6505C13.7225 30.7794 12.7602 31.8645 12.7602 33.1604V33.8542H8.34322L8.25759 33.5022C7.22273 29.2492 7.22273 24.8024 8.25759 20.5493C8.32803 20.2598 8.56771 20.0457 8.85824 20.0128L13.1097 19.5306C20.6798 18.672 28.3199 18.672 35.89 19.5306L40.1414 20.0128C40.432 20.0457 40.6716 20.2598 40.7421 20.5493C41.7769 24.8024 41.7769 29.2492 40.7421 33.5022L40.6564 33.8542Z" fill="#FDC80E"/>
</svg>
