<svg width="36" height="36" viewBox="0 0 36 36" fill="none" xmlns="http://www.w3.org/2000/svg">
<mask id="path-1-inside-1_102_467" fill="white">
<path fill-rule="evenodd" clip-rule="evenodd" d="M3.27609 31.9971C3.15336 32.4426 3.5591 32.8538 4.00617 32.737L10.9172 30.9319C13.0987 32.1136 15.5548 32.7413 18.0555 32.7413H18.0629C26.2919 32.7413 32.9998 26.0722 32.9998 17.8744C32.9998 13.901 31.4489 10.1639 28.6292 7.35736C25.8096 4.55095 22.0623 3 18.0628 3C9.83393 3 3.12598 9.66908 3.12598 17.867C3.12504 20.475 3.81342 23.0373 5.122 25.2967L3.27609 31.9971ZM13.3288 10.7548C13.6032 10.7621 13.9075 10.777 14.1969 11.4195C14.3889 11.8473 14.7123 12.6348 14.9757 13.2763C15.1807 13.7755 15.3493 14.1863 15.3916 14.2703C15.488 14.4623 15.5474 14.6839 15.4212 14.9423C15.4064 14.9728 15.3923 15.002 15.3788 15.03C15.2776 15.24 15.2056 15.3895 15.0354 15.5849C14.9655 15.6652 14.8926 15.7533 14.82 15.841C14.6923 15.9954 14.5654 16.1487 14.4566 16.257C14.2637 16.4489 14.0633 16.6559 14.2859 17.0399C14.5086 17.4239 15.2877 18.6868 16.4379 19.706C17.6743 20.8068 18.7496 21.2708 19.2931 21.5053C19.3986 21.5508 19.4841 21.5877 19.5468 21.6189C19.9327 21.8109 20.1627 21.7813 20.3853 21.5229C20.608 21.2643 21.3499 20.4002 21.6097 20.0162C21.862 19.6322 22.1217 19.6913 22.4779 19.8242C22.834 19.9571 24.7336 20.8877 25.1194 21.0797C25.1957 21.1176 25.267 21.1519 25.3331 21.1836C25.6016 21.3123 25.7841 21.3998 25.8614 21.5303C25.9579 21.6927 25.9579 22.4608 25.6389 23.3618C25.3124 24.2629 23.7393 25.127 23.0269 25.1934C22.9595 25.1998 22.8924 25.2079 22.8233 25.2163C22.1705 25.2952 21.3418 25.3955 18.3893 24.2333C14.7512 22.8027 12.3497 19.2531 11.8641 18.5355C11.8258 18.4788 11.7994 18.4398 11.7853 18.4209L11.7771 18.4099C11.5562 18.1143 10.2048 16.306 10.2048 14.4403C10.2048 12.6552 11.0841 11.7259 11.4852 11.302C11.5106 11.2751 11.5341 11.2503 11.5553 11.2274C11.9114 10.8434 12.3271 10.7474 12.5867 10.7474C12.8465 10.7474 13.1062 10.7474 13.3288 10.7548Z"/>
</mask>
<path fill-rule="evenodd" clip-rule="evenodd" d="M3.27609 31.9971C3.15336 32.4426 3.5591 32.8538 4.00617 32.737L10.9172 30.9319C13.0987 32.1136 15.5548 32.7413 18.0555 32.7413H18.0629C26.2919 32.7413 32.9998 26.0722 32.9998 17.8744C32.9998 13.901 31.4489 10.1639 28.6292 7.35736C25.8096 4.55095 22.0623 3 18.0628 3C9.83393 3 3.12598 9.66908 3.12598 17.867C3.12504 20.475 3.81342 23.0373 5.122 25.2967L3.27609 31.9971ZM13.3288 10.7548C13.6032 10.7621 13.9075 10.777 14.1969 11.4195C14.3889 11.8473 14.7123 12.6348 14.9757 13.2763C15.1807 13.7755 15.3493 14.1863 15.3916 14.2703C15.488 14.4623 15.5474 14.6839 15.4212 14.9423C15.4064 14.9728 15.3923 15.002 15.3788 15.03C15.2776 15.24 15.2056 15.3895 15.0354 15.5849C14.9655 15.6652 14.8926 15.7533 14.82 15.841C14.6923 15.9954 14.5654 16.1487 14.4566 16.257C14.2637 16.4489 14.0633 16.6559 14.2859 17.0399C14.5086 17.4239 15.2877 18.6868 16.4379 19.706C17.6743 20.8068 18.7496 21.2708 19.2931 21.5053C19.3986 21.5508 19.4841 21.5877 19.5468 21.6189C19.9327 21.8109 20.1627 21.7813 20.3853 21.5229C20.608 21.2643 21.3499 20.4002 21.6097 20.0162C21.862 19.6322 22.1217 19.6913 22.4779 19.8242C22.834 19.9571 24.7336 20.8877 25.1194 21.0797C25.1957 21.1176 25.267 21.1519 25.3331 21.1836C25.6016 21.3123 25.7841 21.3998 25.8614 21.5303C25.9579 21.6927 25.9579 22.4608 25.6389 23.3618C25.3124 24.2629 23.7393 25.127 23.0269 25.1934C22.9595 25.1998 22.8924 25.2079 22.8233 25.2163C22.1705 25.2952 21.3418 25.3955 18.3893 24.2333C14.7512 22.8027 12.3497 19.2531 11.8641 18.5355C11.8258 18.4788 11.7994 18.4398 11.7853 18.4209L11.7771 18.4099C11.5562 18.1143 10.2048 16.306 10.2048 14.4403C10.2048 12.6552 11.0841 11.7259 11.4852 11.302C11.5106 11.2751 11.5341 11.2503 11.5553 11.2274C11.9114 10.8434 12.3271 10.7474 12.5867 10.7474C12.8465 10.7474 13.1062 10.7474 13.3288 10.7548Z" fill="white" stroke="white" stroke-width="2" stroke-linejoin="round" mask="url(#path-1-inside-1_102_467)"/>
</svg>
